<?xml version="1.0" encoding="utf-8"?>
<!-- Generator: Adobe Illustrator 24.3.0, SVG Export Plug-In . SVG Version: 6.00 Build 0)  -->
<svg version="1.1" id="图层_2" xmlns="http://www.w3.org/2000/svg" xmlns:xlink="http://www.w3.org/1999/xlink" x="0px" y="0px"
	 viewBox="0 0 569 520.5" enable-background="new 0 0 569 520.5" xml:space="preserve">
<path fill="#E8E8E8" d="M439.752,46.078l-15.207,3.451l-3.304-14.558C380.662,12.685,334.065,0,284.5,0C127.375,0,0,127.375,0,284.5
	c0,98.261,49.815,184.885,125.567,236h317.865C519.185,469.385,569,382.761,569,284.5C569,184.661,517.562,96.848,439.752,46.078z"
	/>
<g>
	<path fill="#198951" d="M56.21,342.416l174-268l6.344-9.771l6.503,10.212c4.586,7.202,8.883,14.566,13.158,21.941
		c4.234,7.398,8.436,14.814,12.498,22.308c8.159,14.968,16.014,30.105,23.674,45.351c3.837,7.619,7.63,15.262,11.352,22.945
		l5.61,11.509l5.486,11.578c7.276,15.459,14.412,30.995,21.023,46.824c-9.949-13.973-19.372-28.239-28.656-42.583l-6.933-10.774
		l-6.81-10.842c-4.558-7.218-9.044-14.476-13.487-21.758c-8.9-14.557-17.604-29.222-26.005-44.056
		c-4.218-7.407-8.296-14.892-12.341-22.395c-4.004-7.526-7.987-15.063-11.681-22.762l12.846,0.441l-174,268L56.21,342.416z"/>
</g>
<g>
	<path fill="#198951" d="M56.533,341.892c0.432-0.383,0.673-0.575,0.988-0.839c0.308-0.262,0.579-0.465,0.871-0.699
		c0.577-0.465,1.144-0.885,1.713-1.309c1.139-0.856,2.28-1.641,3.432-2.424c1.156-0.757,2.305-1.537,3.482-2.238
		c1.169-0.723,2.339-1.443,3.537-2.095c4.771-2.659,9.646-5.076,14.657-7.111c1.239-0.55,2.505-1.016,3.767-1.499
		c1.265-0.471,2.517-0.985,3.793-1.419c2.56-0.839,5.094-1.782,7.69-2.489l3.876-1.13c1.297-0.356,2.606-0.655,3.909-0.985
		c1.306-0.314,2.606-0.662,3.918-0.947l3.948-0.781c10.537-2.028,21.213-3.092,31.867-3.316c5.332-0.162,10.646,0.066,15.956,0.27
		l7.937,0.606c1.326,0.081,2.641,0.231,3.954,0.401l3.943,0.479l3.942,0.481c1.313,0.168,2.61,0.418,3.914,0.632l7.812,1.339
		l7.732,1.669l3.862,0.842l3.819,0.997l7.634,1.998c2.521,0.739,5.024,1.531,7.535,2.295c5.053,1.447,9.954,3.307,14.892,5.054
		c19.657,7.237,38.57,16.173,56.654,26.413l6.661,3.662c2.184,1.243,4.435,2.339,6.657,3.501c4.465,2.279,9.003,4.393,13.59,6.381
		c9.181,3.96,18.614,7.275,28.252,9.724c19.228,4.925,39.51,6.104,58.864,1.59c9.653-2.241,19.029-5.821,27.79-10.644
		c8.778-4.803,16.904-10.842,24.362-17.661c7.442-6.843,14.17-14.526,20.145-22.782c2.994-4.126,5.782-8.408,8.401-12.798
		c2.628-4.386,5.054-8.903,7.213-13.559c-3.615,9.61-8.311,18.838-13.826,27.565c-5.509,8.733-11.85,16.994-19.052,24.518
		c-7.204,7.518-15.358,14.202-24.285,19.77c-8.914,5.591-18.693,9.893-28.897,12.77c-10.2,2.923-20.832,4.305-31.445,4.43
		c-10.615,0.039-21.218-1.116-31.551-3.336c-20.727-4.275-40.36-12.638-58.754-22.267c-17.971-9.309-36.455-17.554-55.49-23.966
		c-4.774-1.546-9.516-3.197-14.349-4.498l-7.219-2.058l-7.283-1.762l-3.64-0.883l-3.667-0.727l-7.333-1.447l-7.374-1.122
		c-1.23-0.174-2.454-0.403-3.686-0.547l-3.698-0.41l-3.697-0.412c-1.232-0.148-2.464-0.278-3.7-0.338l-7.407-0.491
		c-4.938-0.133-9.878-0.302-14.8-0.097c-9.845,0.261-19.648,1.244-29.247,3.123c-9.59,1.873-19.039,4.475-28.01,8.152
		c-4.51,1.782-8.856,3.903-13.06,6.197c-2.113,1.133-4.156,2.356-6.147,3.618c-0.982,0.637-1.97,1.285-2.894,1.95
		c-0.466,0.332-0.938,0.663-1.365,0.995c-0.211,0.163-0.458,0.338-0.64,0.49l-0.491,0.39L56.533,341.892z"/>
</g>
<g>
	<path fill="#198951" d="M65.513,416.5c7.48-7.118,16.502-12.542,25.852-17.089c9.382-4.562,19.36-7.9,29.543-10.388
		c10.199-2.444,20.645-3.919,31.14-4.526c10.496-0.642,21.054-0.418,31.513,0.618l3.929,0.36c1.309,0.127,2.604,0.339,3.907,0.505
		l7.814,1.067l7.746,1.431l3.873,0.73l3.834,0.885l7.672,1.776c2.537,0.66,5.053,1.395,7.578,2.101
		c5.079,1.338,10.023,3.056,15.009,4.67c1.241,0.417,2.499,0.793,3.727,1.244l3.674,1.377l7.342,2.777l1.835,0.697l1.805,0.763
		l3.609,1.526l7.22,3.056c4.765,2.134,9.443,4.448,14.168,6.667c4.668,2.325,9.259,4.788,13.892,7.178l6.695,3.552
		c2.19,1.206,4.443,2.262,6.668,3.385c4.468,2.203,9.007,4.229,13.58,6.146c9.131,3.877,18.523,6.996,28.05,9.349
		c9.521,2.408,19.231,3.76,28.945,4.154c4.86,0.174,9.714-0.007,14.546-0.423c4.837-0.393,9.632-1.184,14.364-2.263
		c4.727-1.097,9.403-2.466,13.971-4.178c4.571-1.703,9.02-3.763,13.355-6.072c8.655-4.651,16.779-10.444,24.235-17.096
		c14.895-13.354,27.347-29.794,36.897-47.978c-1.578,4.899-3.561,9.676-5.711,14.382c-2.2,4.683-4.638,9.266-7.286,13.743
		c-5.294,8.956-11.569,17.398-18.743,25.12c-7.205,7.685-15.361,14.616-24.411,20.336c-9.026,5.746-18.969,10.2-29.361,13.163
		c-5.197,1.472-10.5,2.628-15.86,3.348c-5.359,0.715-10.762,1.108-16.159,1.141c-10.795,0.061-21.545-1.219-31.986-3.517
		c-10.455-2.28-20.625-5.553-30.453-9.498c-4.906-1.996-9.741-4.141-14.487-6.441c-2.36-1.172-4.757-2.284-7.069-3.537l-6.911-3.627
		c-4.469-2.335-8.902-4.749-13.4-7.022c-4.542-2.173-9.063-4.403-13.621-6.535l-6.896-3.059l-3.449-1.531l-1.724-0.766l-1.749-0.698
		l-7.001-2.786l-3.498-1.404c-1.166-0.468-2.357-0.859-3.534-1.292c-4.726-1.679-9.424-3.472-14.232-4.882l-7.176-2.252
		l-7.245-1.984l-3.625-0.995l-3.656-0.84l-7.319-1.685l-7.371-1.393c-1.231-0.221-2.457-0.49-3.693-0.674l-3.711-0.531l-3.714-0.533
		l-1.857-0.274c-0.62-0.083-1.242-0.134-1.863-0.202L167.265,395c-4.984-0.321-9.983-0.672-14.986-0.691
		c-10.004-0.122-20.037,0.45-29.974,1.913c-9.934,1.454-19.793,3.729-29.368,7.012c-4.811,1.59-9.493,3.557-14.095,5.726
		C74.231,411.119,69.733,413.563,65.513,416.5z"/>
</g>
<g>
	<polygon fill="#198951" points="289.211,178.155 340.799,117.608 345.652,111.912 349.49,118.002 458.5,290.971 340.51,123.999 
		349.201,124.392 300.882,187.578 	"/>
</g>
</svg>
